<?xml version="1.0"?>
<svg xmlns="http://www.w3.org/2000/svg" xmlns:xlink="http://www.w3.org/1999/xlink" width="238.724457" height="94.8717117">
	<defs>
		<marker id="CustomMarker-01" markerUnits="strokeWidth" markerWidth="8.39999962" markerHeight="8.39999962" viewBox="-4.2 -4.2 8.4 8.4" orient="auto-start-reverse">
			<path d="M -0 -2.8 C 1.5464 -2.8, 2.8 -1.5464, 2.8 0, 2.8 1.5464, 1.5464 2.8, -0 2.8, -1.5464 2.8, -2.8 1.5464, -2.8 0, -2.8 -1.5464, -1.5464 -2.8, -0 -2.8 Z" fill="#000000" stroke="#000000" stroke-linejoin="round" />
		</marker>
		<marker id="CustomMarker-02" markerUnits="strokeWidth" markerWidth="8.39999962" markerHeight="8.39999962" viewBox="-4.2 -4.2 8.4 8.4" orient="auto-start-reverse">
			<path d="M -0 -2.8 C 1.5464 -2.8, 2.8 -1.5464, 2.8 0, 2.8 1.5464, 1.5464 2.8, -0 2.8, -1.5464 2.8, -2.8 1.5464, -2.8 0, -2.8 -1.5464, -1.5464 -2.8, -0 -2.8 Z" fill="#000000" stroke="#000000" stroke-linejoin="round" />
		</marker>
	</defs>
	<path d="M 0 0 L 480.854 0" fill="none" stroke="#000000" stroke-width="2.4000001" stroke-linecap="round" stroke-linejoin="round" marker-start="url(#CustomMarker-01)" marker-end="url(#CustomMarker-02)" transform="matrix(0.416667 0 0 0.416667 23.6277 50.5351)" />
	<g transform="matrix(1 0 -0 1 9.00001 63.341)">
		<svg width="104.974937" height="77.9797134">
			<defs />
			<path d="M 5.58254 9.06562 C 5.51384 9.2494, 5.39075 9.341, 5.21442 9.34043 L 3.45968 9.34043, 2.06333 14.7541 C 1.95054 15.1457, 1.89386 15.4875, 1.89386 15.78, 1.89386 15.8602, 1.90016 15.9363, 1.91276 16.009, 1.94424 16.3027, 2.09195 16.4493, 2.35588 16.4487, 2.59519 16.4493, 2.82133 16.384, 3.03545 16.2523, 3.24957 16.1212, 3.45052 15.9455, 3.63945 15.7256, 3.82837 15.5058, 3.99784 15.2464, 4.14898 14.947, 4.30012 14.6482, 4.4381 14.3333, 4.56348 14.0029, 4.58294 13.9302, 4.62359 13.877, 4.68657 13.8432, 4.74954 13.81, 4.80908 13.7928, 4.86576 13.7923 L 5.10164 13.7923 C 5.1835 13.7928, 5.24934 13.8266, 5.29972 13.893, 5.31862 13.9365, 5.32778 13.976, 5.32778 14.0121 L 5.32778 14.0671 C 5.1961 14.4277, 5.03064 14.7838, 4.83256 15.1348, 4.63447 15.4863, 4.40661 15.8023, 4.14898 16.0829, 3.89135 16.364, 3.60624 16.5958, 3.2948 16.7785, 2.98335 16.9617, 2.63927 17.0533, 2.26141 17.0533, 1.93451 17.0533, 1.65169 16.9909, 1.41238 16.8655, 1.17365 16.7407, 0.981856 16.5672, 0.837011 16.3439, 0.692738 16.1212, 0.607434 15.8659, 0.582244 15.5785, 0.569649 15.5058, 0.563351 15.4262, 0.563351 15.3403, 0.563351 15.1331, 0.588542 14.9224, 0.638922 14.7083 L 2.02554 9.34043, 0.251906 9.34043 C 0.0950382 9.341, 0.00973421 9.25856, -0.00286099 9.0931 L -0.00286099 9.01982, 0.0538175 8.8641 C 0.116794 8.68147, 0.233586 8.58987, 0.403048 8.58929 L 2.20474 8.58929, 2.97877 5.58476 C 3.03545 5.35919, 3.14995 5.19145, 3.32285 5.08153, 3.49575 4.9716, 3.67036 4.91664, 3.84669 4.91607, 4.02933 4.91664, 4.18047 4.97447, 4.29955 5.09011, 4.38142 5.17027, 4.42207 5.28019, 4.42207 5.41988, 4.42207 5.48744, 4.41577 5.55499, 4.40317 5.6214 L 3.63887 8.58929, 5.3753 8.58929 C 5.53903 8.58987, 5.62033 8.67231, 5.62033 8.83662 L 5.62033 8.90074 Z" stroke="none" fill="#000000" />
			<path d="M 2.81251 -0.675785 C 2.77372 -0.525101, 2.69517 -0.411286, 2.57719 -0.33434, 2.45921 -0.257395, 2.34058 -0.218922, 2.22068 -0.219243, 2.09756 -0.218922, 1.99529 -0.258357, 1.91418 -0.337226, 1.85454 -0.394935, 1.82441 -0.470277, 1.82441 -0.562932, 1.82441 -0.600122, 1.83146 -0.648213, 1.84557 -0.706563, 1.88436 -0.843141, 1.95297 -0.948941, 2.05172 -1.02428, 2.15046 -1.09931, 2.22613 -1.14066, 2.27871 -1.14772, 2.25434 -1.17817, 2.18733 -1.19356, 2.07801 -1.19388, 1.85615 -1.19356, 1.65545 -1.12592, 1.47591 -0.99094, 1.29637 -0.855645, 1.11843 -0.69406, 0.942101 -0.506185, 0.766089 -0.31799, 0.588153 -0.121458, 0.408614 0.083729, 0.229074 0.288917, 0.0719779 0.430945, -0.0620351 0.509173, 0.0649245 0.523279, 0.228754 0.562714, 0.429453 0.627476, 0.630152 0.692559, 0.801035 0.782328, 0.942101 0.896785, 1.08317 1.01156, 1.18159 1.1507, 1.23802 1.31453, 1.26976 1.40366, 1.28739 1.50305, 1.2906 1.61206, 1.2906 1.70118, 1.28002 1.79544, 1.25886 1.89419, 1.21686 2.05513, 1.18704 2.20389, 1.16909 2.34047, 1.15498 2.42639, 1.14793 2.50494, 1.14793 2.57644, 1.14793 2.61427, 1.15146 2.65531, 1.15851 2.69955, 1.16556 2.79573, 1.19025 2.86755, 1.23257 2.91532, 1.27489 2.96341, 1.33837 2.98713, 1.42269 2.98681, 1.52496 2.98713, 1.61473 2.95379, 1.69232 2.8871, 1.7699 2.82042, 1.84012 2.72648, 1.9036 2.60497, 1.96708 2.48378, 2.0235 2.33919, 2.07288 2.17151, 2.12225 2.00416, 2.1713 1.8243, 2.22068 1.63257, 2.24184 1.54409, 2.30371 1.49952, 2.40566 1.4992 L 2.52172 1.4992 C 2.60989 1.49952, 2.65734 1.53703, 2.66439 1.61206 L 2.66439 1.64796 C 2.62207 1.82269, 2.56757 2.00736, 2.50056 2.20229, 2.43388 2.39722, 2.3502 2.57772, 2.24985 2.74347, 2.1495 2.90955, 2.02799 3.04773, 1.88532 3.15866, 1.74265 3.26991, 1.56568 3.32537, 1.35408 3.32537, 1.16396 3.32537, 0.999169 3.28369, 0.860026 3.19969, 0.720883 3.11634, 0.615404 3.00701, 0.543268 2.87171, 0.471132 2.73674, 0.42785 2.58028, 0.413743 2.40203 L 0.413743 2.28404 C 0.413743 2.14747, 0.42785 2.01089, 0.456063 1.87367, 0.477223 1.79192, 0.489406 1.71497, 0.492933 1.64283, 0.492933 1.45496, 0.42272 1.29273, 0.281654 1.15551, 0.0774281 0.974692, -0.190277 0.861839, -0.521463 0.816954 L -1.07098 2.94577 C -1.1024 3.07273, -1.16684 3.16731, -1.26366 3.23047, -1.36049 3.29395, -1.45827 3.32537, -1.55702 3.32537, -1.65897 3.32537, -1.74361 3.29139, -1.81062 3.22278, -1.85646 3.17853, -1.87955 3.11698, -1.87955 3.03811, -1.87955 3.00092, -1.87602 2.96309, -1.86897 2.92526 L -0.278444 -3.24063 C -0.250231 -3.35316, -0.232597 -3.43876, -0.225544 -3.49711 L -0.225544 -3.5125 C -0.225544 -3.54296, -0.232597 -3.56508, -0.246704 -3.57919, -0.289024 -3.60612, -0.368213 -3.62504, -0.484593 -3.63529, -0.600652 -3.64555, -0.734665 -3.65068, -0.885991 -3.651, -0.938891 -3.65068, -0.977684 -3.66768, -1.00237 -3.7023, -1.02353 -3.7225, -1.03411 -3.74815, -1.03411 -3.77925, -1.03411 -3.79944, -1.02866 -3.81836, -1.01808 -3.83567 L -1.00237 -3.91775 C -0.974158 -3.9995, -0.907151 -4.0508, -0.801672 -4.07164 L 0.577573 -4.18449, 0.598412 -4.18449 C 0.640732 -4.18417, 0.675999 -4.17039, 0.704212 -4.14345, 0.725372 -4.11236, 0.735952 -4.0851, 0.735952 -4.06138, 0.735952 -4.04054, 0.730822 -4.02162, 0.720242 -4.00495 L -0.399953 0.345023 C -0.315313 0.314565, -0.207911 0.241146, -0.0777448 0.124767, 0.0527415 0.00870752, 0.182266 -0.119535, 0.310829 -0.25996, 0.439392 -0.400064, 0.570519 -0.545299, 0.704212 -0.695983, 0.838225 -0.846348, 0.978009 -0.983887, 1.12421 -1.10892, 1.2704 -1.23364, 1.42654 -1.33623, 1.59197 -1.4167, 1.7574 -1.49686, 1.94239 -1.53725, 2.14662 -1.53757, 2.39669 -1.53725, 2.58713 -1.45357, 2.71729 -1.28622, 2.80546 -1.16952, 2.84938 -1.04128, 2.84938 -0.901491, 2.84938 -0.825829, 2.8372 -0.750807, 2.81251 -0.675785 Z" stroke="none" fill="#000000" transform="matrix(1.12 0 0 1 8.47351 16.3063)" />
			<polyline points="-3.67696 0 3.67696 0" fill="none" stroke="#000000" stroke-width="0.420223981" stroke-linecap="round" stroke-linejoin="round" transform="matrix(1 0 0 1 18.206 16.3063)" />
			<path d="M 2.37714 3.19713 C 1.7292 3.17661, 1.09857 3.16635, 0.485571 3.16635, -0.127106 3.16635, -0.757737 3.17661, -1.406 3.19713 L -1.406 2.75598, -1.04115 2.75598 C -0.925093 2.7563, -0.815766 2.75469, -0.713814 2.75117, -0.611541 2.74796, -0.514718 2.7393, -0.423025 2.72552, -0.331331 2.71205, -0.252142 2.69827, -0.185456 2.68416, -0.12903 2.67422, -0.082221 2.6428, -0.0453515 2.58958, -0.00816131 2.53668, 0.0101132 2.47769, 0.0101132 2.41229 L 0.0101132 -3.36887 C -0.165899 -3.28295, -0.382628 -3.21787, -0.639754 -3.17362, -0.89688 -3.12906, -1.17869 -3.10694, -1.48519 -3.10726 L -1.48519 -3.54328 C -1.06231 -3.54296, -0.672135 -3.59329, -0.31466 -3.69429, 0.042815 -3.79496, 0.351879 -3.98411, 0.612531 -4.26144 L 0.77636 -4.26144 C 0.89242 -4.26112, 0.950449 -4.20469, 0.950449 -4.09216 L 0.950449 2.41229 C 0.950449 2.4809, 0.968082 2.54085, 1.00335 2.59215, 1.03862 2.64344, 1.08991 2.67422, 1.1566 2.68416, 1.21302 2.69827, 1.28548 2.71205, 1.37333 2.72552, 1.46149 2.7393, 1.56088 2.74796, 1.67181 2.75117, 1.78274 2.75469, 1.89111 2.7563, 1.99658 2.75598 L 2.37714 2.75598, 2.37714 3.19713 Z" stroke="none" fill="#000000" transform="matrix(1.12 0 0 1 26.8298 16.3063)" />
			<rect />
		</svg>
	</g>
	<g transform="matrix(1 0 -0 1 212.225 63.341)">
		<svg width="77.9783478" height="50.9432297">
			<defs />
			<path d="M 5.58254 9.06562 C 5.51384 9.2494, 5.39075 9.341, 5.21442 9.34043 L 3.45968 9.34043, 2.06333 14.7541 C 1.95054 15.1457, 1.89386 15.4875, 1.89386 15.78, 1.89386 15.8602, 1.90016 15.9363, 1.91276 16.009, 1.94424 16.3027, 2.09195 16.4493, 2.35588 16.4487, 2.59519 16.4493, 2.82133 16.384, 3.03545 16.2523, 3.24957 16.1212, 3.45052 15.9455, 3.63945 15.7256, 3.82837 15.5058, 3.99784 15.2464, 4.14898 14.947, 4.30012 14.6482, 4.4381 14.3333, 4.56348 14.0029, 4.58294 13.9302, 4.62359 13.877, 4.68657 13.8432, 4.74954 13.81, 4.80908 13.7928, 4.86576 13.7923 L 5.10164 13.7923 C 5.1835 13.7928, 5.24934 13.8266, 5.29972 13.893, 5.31862 13.9365, 5.32778 13.976, 5.32778 14.0121 L 5.32778 14.0671 C 5.1961 14.4277, 5.03064 14.7838, 4.83256 15.1348, 4.63447 15.4863, 4.40661 15.8023, 4.14898 16.0829, 3.89135 16.364, 3.60624 16.5958, 3.2948 16.7785, 2.98335 16.9617, 2.63927 17.0533, 2.26141 17.0533, 1.93451 17.0533, 1.65169 16.9909, 1.41238 16.8655, 1.17365 16.7407, 0.981856 16.5672, 0.837011 16.3439, 0.692738 16.1212, 0.607434 15.8659, 0.582244 15.5785, 0.569649 15.5058, 0.563351 15.4262, 0.563351 15.3403, 0.563351 15.1331, 0.588542 14.9224, 0.638922 14.7083 L 2.02554 9.34043, 0.251906 9.34043 C 0.0950382 9.341, 0.00973421 9.25856, -0.00286099 9.0931 L -0.00286099 9.01982, 0.0538175 8.8641 C 0.116794 8.68147, 0.233586 8.58987, 0.403048 8.58929 L 2.20474 8.58929, 2.97877 5.58476 C 3.03545 5.35919, 3.14995 5.19145, 3.32285 5.08153, 3.49575 4.9716, 3.67036 4.91664, 3.84669 4.91607, 4.02933 4.91664, 4.18047 4.97447, 4.29955 5.09011, 4.38142 5.17027, 4.42207 5.28019, 4.42207 5.41988, 4.42207 5.48744, 4.41577 5.55499, 4.40317 5.6214 L 3.63887 8.58929, 5.3753 8.58929 C 5.53903 8.58987, 5.62033 8.67231, 5.62033 8.83662 L 5.62033 8.90074 Z" stroke="none" fill="#000000" />
			<path d="M 2.42363 1.95574 C 2.44864 1.98011, 2.46082 2.00576, 2.46082 2.03269, 2.46082 2.06379, 2.44671 2.09809, 2.4185 2.13528, 2.14022 2.52193, 1.78563 2.81721, 1.35409 3.02048, 0.922557 3.22374, 0.49038 3.32537, 0.0572424 3.32537, -0.25631 3.32537, -0.523053 3.24682, -0.742989 3.08973, -0.962924 2.93263, -1.13637 2.7393, -1.26333 2.50975, -1.4044 2.23307, -1.47814 1.93202, -1.48519 1.60693, -1.49224 1.57294, -1.49577 1.53543, -1.49577 1.49407, -1.49577 1.2036, -1.45698 0.906082, -1.37971 0.601507, -1.30565 0.321298, -1.18414 0.051348, -1.01518 -0.208663, -0.845903 -0.468354, -0.631097 -0.701113, -0.370766 -0.906621, -0.127747 -1.10476, 0.138355 -1.25929, 0.4269 -1.37054, 0.715766 -1.48147, 1.0011 -1.53725, 1.2826 -1.53757, 1.4554 -1.53725, 1.61763 -1.50712, 1.76895 -1.44748, 1.92028 -1.38753, 2.04532 -1.30642, 2.14374 -1.20382, 2.24249 -1.10123, 2.3111 -0.978116, 2.34989 -0.834805, 2.364 -0.769402, 2.37073 -0.69951, 2.37073 -0.624488, 2.37073 -0.542093, 2.36047 -0.454888, 2.33931 -0.362874, 2.27263 -0.0820239, 2.13444 0.135988, 1.92477 0.291481, 1.71509 0.447296, 1.47464 0.56079, 1.20341 0.632606, 0.932175 0.704421, 0.645233 0.747382, 0.342261 0.760848, 0.0396092 0.774634, -0.231623 0.781367, -0.471115 0.781046, -0.544855 1.04811, -0.596151 1.31646, -0.624365 1.58641, -0.638471 1.67906, -0.645525 1.76787, -0.645525 1.85315, -0.645525 2.02435, -0.624365 2.1869, -0.582045 2.34047, -0.529145 2.52899, -0.445467 2.68384, -0.331011 2.80503, -0.216555 2.92654, -0.0677938 2.98713, 0.115272 2.98681, 0.488457 2.98713, 0.852985 2.89159, 1.20886 2.69987, 1.56473 2.50847, 1.86033 2.24846, 2.09629 1.91984, 2.12451 1.87239, 2.1649 1.84321, 2.2178 1.83263 L 2.24409 1.83263 C 2.28641 1.83295, 2.32008 1.84482, 2.34444 1.86854 L 2.42363 1.95574 Z M 1.83724 -0.383393 C 1.8584 -0.465147, 1.86898 -0.538566, 1.86898 -0.60397, 1.86898 -0.740547, 1.82859 -0.860133, 1.74747 -0.963048, 1.62789 -1.11662, 1.45188 -1.19356, 1.21944 -1.19388, 1.0399 -1.19356, 0.859397 -1.14804, 0.677935 -1.05763, 0.496472 -0.966895, 0.335528 -0.843141, 0.194462 -0.686045, 0.0360825 -0.518047, -0.0879918 -0.332417, -0.177761 -0.129153, -0.267531 0.0744317, -0.339026 0.266795, -0.391926 0.447616, -0.163013 0.447937, 0.0809672 0.437678, 0.339696 0.417159, 0.598745 0.39664, 0.830222 0.357526, 1.03445 0.299176, 1.23867 0.241146, 1.41116 0.156507, 1.55223 0.0452564, 1.69329 -0.0656731, 1.78819 -0.208663, 1.83724 -0.383393 Z" stroke="none" fill="#000000" transform="matrix(1.12 0 0 1 8.09295 16.3063)" />
			<path d="M 3.1292 1.64796 C 3.07982 1.83648, 3.01474 2.02884, 2.93363 2.22537, 2.85283 2.42223, 2.75056 2.6008, 2.62745 2.76143, 2.50434 2.92237, 2.36327 3.05638, 2.20489 3.16379, 2.04651 3.27151, 1.86505 3.32537, 1.6605 3.32537, 1.48449 3.32537, 1.3322 3.28786, 1.20364 3.21252, 1.0754 3.1375, 0.979215 3.03843, 0.915735 2.91532, 0.852255 2.7922, 0.815386 2.64857, 0.804806 2.4841 L 0.804806 2.44306 C 0.804806 2.29623, 0.836546 2.14586, 0.899705 1.99165, 1.01608 1.69445, 1.12541 1.39693, 1.22736 1.09941, 1.32964 0.801885, 1.42133 0.504364, 1.50212 0.206521, 1.5515 0.00518084, 1.58644 -0.189747, 1.6076 -0.378263, 1.61466 -0.432766, 1.61818 -0.490796, 1.61818 -0.552673, 1.61818 -0.668732, 1.60407 -0.774532, 1.57586 -0.870713, 1.5127 -1.08584, 1.37901 -1.19356, 1.17446 -1.19388, 0.815386 -1.19356, 0.507284 -1.07109, 0.250158 -0.82679, -0.00696731 -0.582168, -0.233956 -0.25483, -0.431449 0.155224 L -1.15506 2.94577 C -1.18647 3.07273, -1.25092 3.16731, -1.34774 3.23047, -1.44456 3.29395, -1.54235 3.32537, -1.64109 3.32537, -1.74657 3.32537, -1.82769 3.29139, -1.88411 3.22278, -1.92964 3.17853, -1.95272 3.11698, -1.95272 3.03811, -1.95272 3.00765, -1.9492 2.97014, -1.94214 2.92526 L -1.12877 -0.250021 C -1.07234 -0.47188, -1.04413 -0.663602, -1.04413 -0.824546 L -1.04413 -0.947659 C -1.06144 -1.11149, -1.14415 -1.19356, -1.29227 -1.19388, -1.44713 -1.19356, -1.57665 -1.06853, -1.68053 -0.819096, -1.7844 -0.569344, -1.88572 -0.244571, -1.98446 0.155224, -2.02293 0.247879, -2.08802 0.295649, -2.17971 0.298855 L -2.30122 0.298855 C -2.38586 0.299176, -2.42818 0.256536, -2.42818 0.170613 L -2.42818 0.134705 C -2.38586 -0.0255973, -2.33809 -0.200969, -2.28551 -0.390767, -2.23261 -0.580565, -2.16208 -0.760104, -2.07423 -0.929384, -1.98606 -1.09866, -1.87514 -1.2423, -1.74144 -1.36028, -1.60743 -1.47826, -1.44039 -1.53725, -1.2397 -1.53757, -0.950509 -1.53725, -0.72352 -1.45165, -0.558088 -1.28077, -0.392656 -1.10956, -0.306413 -0.942209, -0.299359 -0.778379, -0.15124 -0.96946, 0.054589 -1.14387, 0.318768 -1.30129, 0.582947 -1.45838, 0.889446 -1.53725, 1.23794 -1.53757, 1.4457 -1.53725, 1.63966 -1.49878, 1.8192 -1.42183, 1.99874 -1.34489, 2.13788 -1.22081, 2.23631 -1.05025, 2.34211 -0.875522, 2.39469 -0.678991, 2.39469 -0.460338 L 2.39469 -0.43469 C 2.38763 -0.215396, 2.35622 0.00518084, 2.29979 0.22704, 2.219 0.538668, 2.1257 0.844846, 2.0199 1.14557, 1.9141 1.44662, 1.80317 1.75088, 1.68711 2.05834, 1.58131 2.33566, 1.52841 2.5681, 1.52841 2.75598, 1.52841 2.91019, 1.59382 2.98713, 1.72398 2.98681, 1.84389 2.98713, 1.95289 2.95122, 2.05164 2.87941, 2.15039 2.80759, 2.23919 2.71109, 2.31838 2.58958, 2.39757 2.46839, 2.46875 2.32476, 2.53223 2.15869, 2.59571 1.99293, 2.64829 1.81596, 2.69061 1.62744, 2.73293 1.54216, 2.79288 1.49952, 2.87015 1.4992 L 3.00224 1.4992 C 3.08688 1.49952, 3.1292 1.53703, 3.1292 1.61206 L 3.1292 1.64796 Z" stroke="none" fill="#000000" transform="matrix(1.12 0 0 1 14.1868 16.3063)" />
			<path d="M 1.58682 2.03782 C 1.52334 2.25711, 1.4916 2.44852, 1.4916 2.61234, 1.4916 2.65723, 1.49512 2.69987, 1.50218 2.74059, 1.51981 2.90506, 1.60253 2.98713, 1.75032 2.98681, 1.82438 2.98713, 1.89396 2.95635, 1.95904 2.8948, 2.02444 2.83324, 2.0844 2.74187, 2.1389 2.62036, 2.1934 2.49917, 2.24534 2.35362, 2.29471 2.18434, 2.34409 2.01506, 2.39506 1.83135, 2.44764 1.63257, 2.4688 1.54409, 2.52875 1.49952, 2.6275 1.4992 L 2.74901 1.4992 C 2.8407 1.49952, 2.88623 1.53703, 2.88623 1.61206 L 2.88623 1.64796 C 2.84391 1.81596, 2.79646 1.9955, 2.74356 2.1869, 2.69098 2.37862, 2.62045 2.55624, 2.53228 2.72039, 2.44444 2.88454, 2.33351 3.02657, 2.19949 3.14615, 2.0658 3.26574, 1.89844 3.32537, 1.69775 3.32537, 1.43004 3.32537, 1.2162 3.25131, 1.05589 3.10255, 0.895591 2.95379, 0.803256 2.80246, 0.77857 2.64825, 0.658984 2.78547, 0.480407 2.93263, 0.242517 3.08973, 0.00462818 3.24682, -0.246406 3.32537, -0.510585 3.32537, -0.78855 3.32537, -1.02163 3.25548, -1.21015 3.11537, -1.39866 2.97527, -1.5455 2.79894, -1.6513 2.5867, -1.77826 2.33406, -1.84527 2.06219, -1.85232 1.77108 L -1.85232 1.69413 C -1.85232 1.42418, -1.81513 1.15423, -1.74139 0.88364, -1.65675 0.586438, -1.53845 0.292443, -1.38712 0.00165415, -1.23579 -0.288814, -1.0351 -0.559085, -0.785023 -0.809157, -0.580797 -1.01402, -0.347397 -1.18651, -0.0851414 -1.32694, 0.177114 -1.46704, 0.443858 -1.53725, 0.71509 -1.53757, 0.951056 -1.53725, 1.1431 -1.47473, 1.2909 -1.35002, 1.43902 -1.22498, 1.53231 -1.12014, 1.57079 -1.03486 L 2.14146 -3.24063 C 2.16968 -3.35316, 2.18731 -3.43876, 2.19404 -3.49711 L 2.19404 -3.50224 C 2.19404 -3.53623, 2.18186 -3.56188, 2.15717 -3.57919, 2.12575 -3.60612, 2.05169 -3.62504, 1.93531 -3.63529, 1.81926 -3.64555, 1.68524 -3.65068, 1.53392 -3.651, 1.43549 -3.65068, 1.38612 -3.69685, 1.38612 -3.78951 L 1.38612 -3.83054, 1.41754 -3.91775 C 1.4387 -3.99598, 1.50218 -4.04727, 1.60798 -4.07164 L 2.61147 -4.15371, 2.99716 -4.18449, 3.01832 -4.18449 C 3.06064 -4.18417, 3.09783 -4.16878, 3.12925 -4.13832, 3.13983 -4.10723, 3.14496 -4.07805, 3.14496 -4.05112 L 3.14496 -4.01521 Z M 1.37554 -0.239762 C 1.36143 -0.300997, 1.34925 -0.365119, 1.33867 -0.431804, 1.32809 -0.49849, 1.31206 -0.564214, 1.2909 -0.629618, 1.23447 -0.789921, 1.15432 -0.924255, 1.05044 -1.03198, 0.946567 -1.1397, 0.815439 -1.19356, 0.65706 -1.19388, 0.509261 -1.19356, 0.363065 -1.14034, 0.218793 -1.03454, 0.0745201 -0.928422, -0.0578899 -0.791844, -0.177796 -0.624488, -0.346435 -0.388202, -0.473074 -0.142618, -0.557714 0.111943, -0.642354 0.366824, -0.71994 0.632606, -0.790473 0.909288, -0.860686 1.18309, -0.918716 1.44823, -0.964883 1.70439, -0.992775 1.83456, -1.00688 1.95767, -1.00688 2.07373, -1.00688 2.19716, -0.992775 2.31675, -0.964883 2.43281, -0.932822 2.59375, -0.875754 2.72648, -0.793038 2.83068, -0.710322 2.93519, -0.594904 2.98713, -0.447105 2.98681, -0.284878 2.98713, -0.122011 2.93071, 0.0414977 2.81785, 0.205327 2.705, 0.357615 2.5665, 0.498361 2.40203, 0.554787 2.33406, 0.608649 2.26833, 0.659625 2.20485, 0.710922 2.1417, 0.755807 2.07405, 0.794279 2.00191 L 1.37554 -0.239762 Z" stroke="none" fill="#000000" transform="matrix(1.12 0 0 1 20.5881 16.3063)" />
			<rect />
		</svg>
	</g>
	<ellipse cx="752.15931415557861" cy="555.96741962432861" rx="6.3000001907348633" ry="6.3000001907348633" stroke="none" fill="#000000" transform="matrix(0.416667 0 0 0.416667 -198.131 -181.118)" />
	<g transform="matrix(1 0 -0 1 110.608 63.341)">
		<svg width="32.9476204" height="50.9432297">
			<defs />
			<path d="M 5.58254 9.06562 C 5.51384 9.2494, 5.39075 9.341, 5.21442 9.34043 L 3.45968 9.34043, 2.06333 14.7541 C 1.95054 15.1457, 1.89386 15.4875, 1.89386 15.78, 1.89386 15.8602, 1.90016 15.9363, 1.91276 16.009, 1.94424 16.3027, 2.09195 16.4493, 2.35588 16.4487, 2.59519 16.4493, 2.82133 16.384, 3.03545 16.2523, 3.24957 16.1212, 3.45052 15.9455, 3.63945 15.7256, 3.82837 15.5058, 3.99784 15.2464, 4.14898 14.947, 4.30012 14.6482, 4.4381 14.3333, 4.56348 14.0029, 4.58294 13.9302, 4.62359 13.877, 4.68657 13.8432, 4.74954 13.81, 4.80908 13.7928, 4.86576 13.7923 L 5.10164 13.7923 C 5.1835 13.7928, 5.24934 13.8266, 5.29972 13.893, 5.31862 13.9365, 5.32778 13.976, 5.32778 14.0121 L 5.32778 14.0671 C 5.1961 14.4277, 5.03064 14.7838, 4.83256 15.1348, 4.63447 15.4863, 4.40661 15.8023, 4.14898 16.0829, 3.89135 16.364, 3.60624 16.5958, 3.2948 16.7785, 2.98335 16.9617, 2.63927 17.0533, 2.26141 17.0533, 1.93451 17.0533, 1.65169 16.9909, 1.41238 16.8655, 1.17365 16.7407, 0.981856 16.5672, 0.837011 16.3439, 0.692738 16.1212, 0.607434 15.8659, 0.582244 15.5785, 0.569649 15.5058, 0.563351 15.4262, 0.563351 15.3403, 0.563351 15.1331, 0.588542 14.9224, 0.638922 14.7083 L 2.02554 9.34043, 0.251906 9.34043 C 0.0950382 9.341, 0.00973421 9.25856, -0.00286099 9.0931 L -0.00286099 9.01982, 0.0538175 8.8641 C 0.116794 8.68147, 0.233586 8.58987, 0.403048 8.58929 L 2.20474 8.58929, 2.97877 5.58476 C 3.03545 5.35919, 3.14995 5.19145, 3.32285 5.08153, 3.49575 4.9716, 3.67036 4.91664, 3.84669 4.91607, 4.02933 4.91664, 4.18047 4.97447, 4.29955 5.09011, 4.38142 5.17027, 4.42207 5.28019, 4.42207 5.41988, 4.42207 5.48744, 4.41577 5.55499, 4.40317 5.6214 L 3.63887 8.58929, 5.3753 8.58929 C 5.53903 8.58987, 5.62033 8.67231, 5.62033 8.83662 L 5.62033 8.90074 Z" stroke="none" fill="#000000" />
			<path d="M 1.70456 -3.31244 C 1.67282 -3.18228, 1.59973 -3.07359, 1.48527 -2.98639, 1.37081 -2.89918, 1.24674 -2.85558, 1.11273 -2.8559, 0.971981 -2.85558, 0.864578 -2.90335, 0.790519 -2.99953, 0.741145 -3.05404, 0.714855 -3.12072, 0.711008 -3.19959, 0.711008 -3.24704, 0.718062 -3.29513, 0.732168 -3.34322, 0.764229 -3.47275, 0.838289 -3.58143, 0.954348 -3.66864, 1.07041 -3.75584, 1.19544 -3.79944, 1.32946 -3.79976, 1.47052 -3.79944, 1.57793 -3.75328, 1.65166 -3.66126, 1.70104 -3.59586, 1.72572 -3.52597, 1.72572 -3.45095, 1.72572 -3.40286, 1.71867 -3.35669, 1.70456 -3.31244 Z M 1.76259 1.66335 C 1.72412 1.84161, 1.66417 2.02884, 1.58306 2.22537, 1.50226 2.42223, 1.40255 2.6008, 1.28457 2.76143, 1.16659 2.92237, 1.02809 3.05638, 0.869708 3.16379, 0.711329 3.27151, 0.527943 3.32537, 0.32019 3.32537, 0.144178 3.32537, -0.00714791 3.28786, -0.134108 3.21252, -0.261067 3.1375, -0.358852 3.03843, -0.427462 2.91532, -0.496071 2.7922, -0.530376 2.65531, -0.530376 2.50462, -0.537429 2.49821, -0.540956 2.48442, -0.540956 2.46358, -0.540956 2.31001, -0.507292 2.1526, -0.440606 1.99165 L 0.41541 -0.26541 C 0.52121 -0.548826, 0.573789 -0.781585, 0.573789 -0.963048, 0.573789 -1.11662, 0.508706 -1.19356, 0.37822 -1.19388, 0.258634 -1.19356, 0.151231 -1.15926, 0.0560113 -1.09097, -0.0388879 -1.02236, -0.126093 -0.92746, -0.205603 -0.806272, -0.284792 -0.684762, -0.355967 -0.541131, -0.419447 -0.375378, -0.482926 -0.209304, -0.535826 -0.0326507, -0.578146 0.155224, -0.616619 0.247879, -0.681702 0.295649, -0.773395 0.298855 L -0.889775 0.298855 C -0.974415 0.299176, -1.01673 0.256536, -1.01673 0.170613 L -1.01673 0.134705 C -0.974415 -0.0531695, -0.910935 -0.245212, -0.826295 -0.442064, -0.741655 -0.638595, -0.639702 -0.817172, -0.519796 -0.978116, -0.39989 -1.13874, -0.260747 -1.27211, -0.102368 -1.37823, 0.0560113 -1.48403, 0.237474 -1.53725, 0.4417 -1.53757, 0.618033 -1.53725, 0.767756 -1.49942, 0.890868 -1.4244, 1.0143 -1.34906, 1.10856 -1.24903, 1.17364 -1.12431, 1.23872 -0.999276, 1.27463 -0.85853, 1.28169 -0.701434 L 1.28169 -0.665526 C 1.28169 -0.518047, 1.25187 -0.36608, 1.19192 -0.208984 L 0.3359 2.05834 C 0.237474 2.33566, 0.188101 2.57163, 0.188101 2.76624, 0.181047 2.77329, 0.177521 2.77329, 0.177521 2.76624, 0.177521 2.91371, 0.244527 2.98713, 0.37822 2.98681, 0.498126 2.98713, 0.606491 2.95122, 0.703314 2.87941, 0.800137 2.80759, 0.888303 2.71205, 0.967493 2.59215, 1.04668 2.47256, 1.11625 2.32893, 1.17621 2.16125, 1.23616 1.9939, 1.29066 1.81756, 1.34004 1.63257, 1.3612 1.54409, 1.42275 1.49952, 1.5247 1.4992 L 1.64108 1.4992 C 1.67988 1.49952, 1.71867 1.51139, 1.75714 1.53511, 1.76804 1.56268, 1.7767 1.58673, 1.78375 1.60693, 1.78375 1.62777, 1.7767 1.64668, 1.76259 1.66335 Z" stroke="none" fill="#000000" transform="matrix(1.12 0 0 1 7.61324 16.3063)" />
			<rect />
		</svg>
	</g>
	<path d="M 0.254944 -50.5717 L -0.255615 50.5715" fill="none" stroke="#000000" stroke-width="2.4000001" stroke-linecap="round" stroke-linejoin="round" stroke-dasharray="8.412, 5.988" transform="matrix(0.416667 0 0 0.416667 23.8406 39.178)" />
	<path d="M 0.255554 -50.5717 L -0.254883 50.5715" fill="none" stroke="#000000" stroke-width="2.4000001" stroke-linecap="round" stroke-linejoin="round" stroke-dasharray="8.412, 5.988" transform="matrix(0.416667 0 0 0.416667 115.163 39.178)" />
	<path d="M -109.448 0 L 109.448 0" fill="none" stroke="#000000" stroke-width="1.60000014" stroke-linecap="round" stroke-linejoin="round" transform="matrix(0.416667 0 0 0.416667 69.6658 27.0271)" />
	<g transform="matrix(1 0 -0 1 60.5231 8.50007)">
		<svg width="60.0535011" height="41.967556">
			<defs />
			<path d="M 12.3929 14.2167 C 12.3929 14.2697, 12.3767 14.3138, 12.3443 14.3501, 12.2962 14.408, 12.2314 14.4365, 12.1505 14.4365 L 0.173383 14.4365 C 0.0762202 14.4365, 0.0168427 14.3923, -0.00474912 14.303 L -0.00474912 14.2795 C -0.00474912 14.2329, 0.0114447 14.1857, 0.0438324 14.1381 L 8.64031 2.94967 C 8.78606 2.81423, 8.92346 2.74848, 9.05301 2.75338 L 9.19826 2.75338 C 9.371 2.75387, 9.4873 2.82994, 9.54619 2.98108 L 12.3929 14.1696 Z M 8.21976 4.51999 L 1.58028 13.141, 10.4197 13.141 Z" stroke="none" fill="#000000" />
			<path d="M 18.0324 7.77053 C 17.9735 7.92805, 17.868 8.00657, 17.7169 8.00608 L 16.2128 8.00608, 15.0159 12.6464 C 14.9192 12.982, 14.8707 13.275, 14.8707 13.5257, 14.8707 13.5944, 14.8761 13.6597, 14.8869 13.722, 14.9138 13.9738, 15.0405 14.0994, 15.2667 14.0989, 15.4718 14.0994, 15.6656 14.0434, 15.8492 13.9306, 16.0327 13.8182, 16.2049 13.6675, 16.3669 13.4791, 16.5288 13.2907, 16.6741 13.0684, 16.8036 12.8117, 16.9332 12.5556, 17.0514 12.2857, 17.1589 12.0025, 17.1756 11.9402, 17.2104 11.8946, 17.2644 11.8656, 17.3184 11.8372, 17.3694 11.8224, 17.418 11.8219 L 17.6202 11.8219 C 17.6904 11.8224, 17.7468 11.8514, 17.79 11.9083, 17.8062 11.9456, 17.814 11.9795, 17.814 12.0104 L 17.814 12.0575 C 17.7011 12.3666, 17.5593 12.6719, 17.3895 12.9727, 17.2197 13.274, 17.0244 13.5449, 16.8036 13.7853, 16.5828 14.0263, 16.3384 14.225, 16.0715 14.3815, 15.8045 14.5386, 15.5096 14.6171, 15.1857 14.6171, 14.9055 14.6171, 14.6631 14.5636, 14.458 14.4561, 14.2533 14.3492, 14.0889 14.2005, 13.9648 14.0091, 13.8411 13.8182, 13.768 13.5993, 13.7464 13.353, 13.7356 13.2907, 13.7302 13.2225, 13.7302 13.1489, 13.7302 12.9712, 13.7518 12.7906, 13.795 12.6071 L 14.9835 8.00608, 13.4633 8.00608 C 13.3288 8.00657, 13.2557 7.93591, 13.2449 7.79409 L 13.2449 7.73127, 13.2935 7.5978 C 13.3475 7.44126, 13.4476 7.36274, 13.5928 7.36225 L 15.1371 7.36225, 15.8006 4.78694 C 15.8492 4.59359, 15.9473 4.44981, 16.0955 4.35559, 16.2437 4.26137, 16.3934 4.21426, 16.5445 4.21377, 16.7011 4.21426, 16.8306 4.26383, 16.9327 4.36295, 17.0029 4.43165, 17.0377 4.52587, 17.0377 4.64561, 17.0377 4.70352, 17.0323 4.76142, 17.0215 4.81834 L 16.3664 7.36225, 17.8547 7.36225 C 17.9951 7.36274, 18.0648 7.43341, 18.0648 7.57424 L 18.0648 7.6292 Z" stroke="none" fill="#000000" />
			<rect />
		</svg>
	</g>
	<g transform="matrix(1 0 -0 1 164.012 65.0001)">
		<svg width="41.9100456" height="11.9756727">
			<defs />
			<ellipse cx="-0" cy="-0" rx="0.9905279278755188" ry="0.9905279278755188" stroke="none" fill="#000000" transform="matrix(1 0 0 1 5.628 9.60638)" />
			<ellipse cx="-0" cy="-0" rx="0.9905279278755188" ry="0.9905279278755188" stroke="none" fill="#000000" transform="matrix(1 0 0 1 0.5628 9.60638)" />
			<ellipse cx="-0" cy="-0" rx="0.9905279278755188" ry="0.9905279278755188" stroke="none" fill="#000000" transform="matrix(1 0 0 1 10.6932 9.60638)" />
			<rect />
		</svg>
	</g>
</svg>
